<svg width="116" height="69" viewBox="0 0 116 69" fill="none" xmlns="http://www.w3.org/2000/svg">
<path d="M108.855 49.8168C108.704 52.0208 106.795 53.685 104.591 53.5339L29.3457 48.3766C28.1192 48.2925 26.9995 47.6491 26.3093 46.6318L17.436 33.5544C16.4061 32.0365 16.5406 30.0126 17.7623 28.6443L28.3553 16.781C29.178 15.8596 30.3802 15.37 31.6125 15.4545L106.847 20.6112C109.051 20.7622 110.715 22.6713 110.564 24.8753L109.709 37.3461L108.855 49.8168Z" fill="#335891"/>
<circle cx="26.1592" cy="31.69" r="2.5" transform="rotate(-176.079 26.1592 31.69)" fill="white"/>
<path d="M12.066 17.0023L13.0637 17.0707L12.9269 19.066L11.9293 18.9977L12.066 17.0023ZM25.7623 30.209C26.3146 30.2106 26.761 30.6596 26.7594 31.2119C26.7579 31.7641 26.3089 32.2106 25.7566 32.209L25.7623 30.209ZM11.9293 18.9977C9.38862 18.8236 7.2139 19.5025 5.82293 20.5369C4.42879 21.5736 3.9347 22.8447 4.27714 24.0073C4.64186 25.2457 6.06638 26.8027 9.53164 28.0628C12.9603 29.3096 18.1942 30.1874 25.7623 30.209L25.7566 32.209C18.0642 32.187 12.5759 31.298 8.84815 29.9424C5.15701 28.6002 2.99099 26.7194 2.35862 24.5724C1.70395 22.3497 2.80621 20.2878 4.62947 18.932C6.45589 17.5738 9.1196 16.8004 12.066 17.0023L11.9293 18.9977Z" fill="#262626"/>
<path d="M49.4838 40.9883C52.5367 41.1975 54.4772 39.4722 54.6261 37.2993C54.7566 35.3957 53.7685 34.2815 52.2157 33.5076L50.5231 32.6699C49.4225 32.1434 48.4953 31.719 48.5606 30.7672C48.6197 29.9052 49.3916 29.4349 50.5589 29.5149C51.6543 29.59 52.5072 30.0454 53.3211 30.8048L54.7645 29.2258C53.7621 28.0565 52.2596 27.3401 50.7152 27.2343C48.0395 27.0509 46.0035 28.5893 45.8546 30.7622C45.7229 32.6836 47.0126 33.8726 48.3046 34.5024L50.0307 35.3785C51.1814 35.9626 51.9674 36.3412 51.8997 37.3289C51.8369 38.2447 51.078 38.7881 49.6952 38.6933C48.528 38.6133 47.2924 37.9513 46.4189 37.0074L44.7669 38.7344C45.9749 40.0622 47.688 40.8652 49.4838 40.9883ZM59.5203 41.6762C60.4182 41.7377 61.1321 41.5882 61.6831 41.4455L61.3838 39.4945C61.0891 39.5825 60.7034 39.6824 60.3622 39.659C59.4823 39.5987 59.0343 39.0267 59.1131 37.8774L59.4196 33.4059L61.9157 33.577L62.0573 31.5119L59.5611 31.3408L59.7482 28.6112L57.5574 28.461L57.0829 31.1709L55.5132 31.1716L55.3791 33.129L56.7798 33.225L56.4733 37.6965C56.3194 39.9412 57.1319 41.5125 59.5203 41.6762ZM67.3586 42.2134C68.5977 42.2983 69.8831 41.9715 70.9175 41.3568L70.1496 39.6623C69.3826 40.0608 68.647 40.2629 67.8389 40.2076C66.3484 40.1054 65.3288 39.1875 65.2086 37.5194L71.422 37.9453C71.4931 37.6976 71.579 37.2343 71.6134 36.7315C71.8042 33.9481 70.5234 31.8395 67.7399 31.6488C65.3695 31.4863 62.933 33.34 62.709 36.6084C62.4813 39.9306 64.5392 42.0202 67.3586 42.2134ZM65.2933 35.7571C65.6097 34.2993 66.5952 33.6091 67.6547 33.6817C68.9477 33.7703 69.4992 34.6741 69.4056 36.0389L65.2933 35.7571ZM73.164 46.2378L75.8038 46.4187L76.0131 43.3659L76.0353 41.7256C76.7415 42.4776 77.5776 42.9138 78.4396 42.9729C80.6484 43.1243 82.849 41.2905 83.0853 37.8426C83.2982 34.7359 81.9636 32.6237 79.4854 32.4538C78.4079 32.38 77.3282 32.8653 76.4517 33.5449L76.3978 33.5412L76.2537 32.4849L74.1167 32.3384L73.164 46.2378ZM78.0139 40.7606C77.4752 40.7237 76.841 40.4998 76.2506 39.9L76.5546 35.4644C77.285 34.8109 77.919 34.5115 78.5834 34.557C79.9841 34.6531 80.5041 35.7532 80.3712 37.6926C80.2223 39.8655 79.2171 40.8431 78.0139 40.7606ZM93.6693 43.7642L96.1295 43.9328L97.0169 30.9852L93.8384 30.7673L88.3572 38.3483L88.2329 40.162L97.9301 40.8267L98.0692 38.7974L90.9399 38.3088L93.2099 35.1987C93.6375 34.4883 94.0422 33.8485 94.4314 33.1715L94.5032 33.1764C94.4144 33.9461 94.2576 35.1803 94.2047 35.9525L93.6693 43.7642Z" fill="white"/>
</svg>
