<svg width="116" height="69" viewBox="0 0 116 69" fill="none" xmlns="http://www.w3.org/2000/svg">
<path d="M108.857 49.8169C108.706 52.0208 106.797 53.685 104.593 53.534L29.3481 48.3766C28.1216 48.2926 27.0019 47.6492 26.3116 46.6319L17.4383 33.5544C16.4084 32.0365 16.5429 30.0126 17.7647 28.6444L28.3577 16.781C29.1804 15.8597 30.3826 15.3701 31.6149 15.4546L106.849 20.6112C109.053 20.7623 110.718 22.6714 110.567 24.8754L109.712 37.3461L108.857 49.8169Z" fill="#335891"/>
<circle cx="26.1616" cy="31.69" r="2.5" transform="rotate(-176.079 26.1616 31.69)" fill="white"/>
<path d="M12.0684 17.0023L13.066 17.0707L12.9293 19.066L11.9316 18.9977L12.0684 17.0023ZM25.7646 30.209C26.3169 30.2106 26.7634 30.6596 26.7618 31.2119C26.7602 31.7641 26.3112 32.2106 25.7589 32.209L25.7646 30.209ZM11.9316 18.9977C9.39097 18.8236 7.21625 19.5025 5.82528 20.5369C4.43114 21.5736 3.93705 22.8447 4.27948 24.0073C4.64421 25.2457 6.06873 26.8027 9.53399 28.0628C12.9626 29.3096 18.1965 30.1874 25.7646 30.209L25.7589 32.209C18.0666 32.187 12.5782 31.298 8.85049 29.9424C5.15936 28.6002 2.99334 26.7194 2.36097 24.5724C1.7063 22.3497 2.80856 20.2878 4.63182 18.932C6.45824 17.5738 9.12195 16.8004 12.0684 17.0023L11.9316 18.9977Z" fill="#262626"/>
<path d="M49.4862 40.9883C52.539 41.1975 54.4795 39.4722 54.6285 37.2993C54.7589 35.3957 53.7708 34.2815 52.2181 33.5076L50.5254 32.6699C49.4248 32.1434 48.4977 31.719 48.5629 30.7672C48.622 29.9052 49.394 29.4349 50.5612 29.5149C51.6567 29.59 52.5095 30.0454 53.3235 30.8048L54.7668 29.2258C53.7645 28.0565 52.2619 27.3401 50.7176 27.2343C48.0418 27.0509 46.0059 28.5893 45.8569 30.7622C45.7252 32.6836 47.015 33.8726 48.3069 34.5024L50.033 35.3785C51.1838 35.9626 51.9697 36.3412 51.9021 37.3289C51.8393 38.2447 51.0803 38.7881 49.6976 38.6933C48.5303 38.6133 47.2947 37.9513 46.4212 37.0074L44.7692 38.7344C45.9773 40.0622 47.6904 40.8652 49.4862 40.9883ZM59.5227 41.6762C60.4205 41.7377 61.1344 41.5882 61.6855 41.4455L61.3862 39.4945C61.0915 39.5825 60.7058 39.6824 60.3646 39.659C59.4846 39.5987 59.0367 39.0267 59.1155 37.8774L59.4219 33.4059L61.9181 33.577L62.0596 31.5119L59.5635 31.3408L59.7506 28.6112L57.5597 28.461L57.0853 31.1709L55.5156 31.1716L55.3814 33.129L56.7821 33.225L56.4756 37.6965C56.3218 39.9412 57.1343 41.5125 59.5227 41.6762ZM67.361 42.2134C68.6001 42.2983 69.8854 41.9715 70.9199 41.3568L70.152 39.6623C69.3849 40.0608 68.6494 40.2629 67.8413 40.2076C66.3508 40.1054 65.3311 39.1875 65.2109 37.5194L71.4243 37.9453C71.4955 37.6976 71.5813 37.2343 71.6158 36.7315C71.8066 33.9481 70.5258 31.8395 67.7423 31.6488C65.3718 31.4863 62.9354 33.34 62.7114 36.6084C62.4837 39.9306 64.5416 42.0202 67.361 42.2134ZM65.2956 35.7571C65.6121 34.2993 66.5976 33.6091 67.6571 33.6817C68.95 33.7703 69.5015 34.6741 69.408 36.0389L65.2956 35.7571ZM73.1664 46.2378L75.8062 46.4187L76.0154 43.3659L76.0376 41.7256C76.7439 42.4776 77.58 42.9138 78.442 42.9729C80.6508 43.1243 82.8513 41.2905 83.0877 37.8426C83.3006 34.7359 81.9659 32.6237 79.4877 32.4538C78.4102 32.38 77.3305 32.8653 76.454 33.5449L76.4001 33.5412L76.256 32.4849L74.119 32.3384L73.1664 46.2378ZM78.0162 40.7606C77.4775 40.7237 76.8433 40.4998 76.253 39.9L76.557 35.4644C77.2874 34.8109 77.9213 34.5115 78.5858 34.557C79.9865 34.6531 80.5065 35.7532 80.3736 37.6926C80.2246 39.8655 79.2194 40.8431 78.0162 40.7606ZM89.0924 43.4503L97.1016 43.9993L97.248 41.8623L94.7519 41.6912L95.4929 30.8806L93.5355 30.7464C92.6378 31.2081 91.7165 31.4877 90.3512 31.6648L90.2392 33.299L92.6635 33.4651L92.1121 41.5103L89.2388 41.3133L89.0924 43.4503Z" fill="white"/>
</svg>
